<?xml version="1.0" encoding="utf-8"?>
<!-- Generator: Adobe Illustrator 17.0.0, SVG Export Plug-In . SVG Version: 6.00 Build 0)  -->
<!DOCTYPE svg PUBLIC "-//W3C//DTD SVG 1.1//EN" "http://www.w3.org/Graphics/SVG/1.1/DTD/svg11.dtd">
<svg version="1.1" id="Layer_1" xmlns="http://www.w3.org/2000/svg" xmlns:xlink="http://www.w3.org/1999/xlink" x="0px" y="0px"
	 width="150.885px" height="140.18px" viewBox="0 0 150.885 140.18" enable-background="new 0 0 150.885 140.18"
	 xml:space="preserve">
<g>
	<path fill="#3F2B2F" d="M123.187,99.728l-18.402-18.402c-2.045,2.863-4.089,5.725-6.543,8.588
		c-2.454,2.454-5.316,4.907-8.588,6.543l18.811,18.402c4.089,4.089,11.041,4.089,15.131,0l0,0
		C127.685,110.769,127.276,103.817,123.187,99.728L123.187,99.728z"/>
	<path fill="#3F2B2F" d="M102.331,56.789c0-20.447-16.766-36.804-36.804-36.804c-10.223,0-19.22,4.089-26.172,11.041
		c-6.952,6.543-11.041,15.949-11.041,25.763c0,20.447,16.766,36.804,36.804,36.804c10.223,0,19.629-4.089,26.172-11.041
		C98.241,76.418,102.331,67.013,102.331,56.789L102.331,56.789z M81.475,73.147c-4.089,4.089-9.815,6.543-15.949,6.543
		c-12.677,0-22.901-10.223-22.901-22.901c0-6.134,2.454-11.859,6.543-15.949s9.815-6.543,15.949-6.543
		c12.677,0,22.901,10.223,22.901,22.901C88.018,63.332,85.564,69.057,81.475,73.147L81.475,73.147z"/>
</g>
</svg>
